<?xml version="1.0" standalone="no"?>
<!DOCTYPE svg PUBLIC "-//W3C//DTD SVG 20010904//EN"
 "http://www.w3.org/TR/2001/REC-SVG-20010904/DTD/svg10.dtd">
<svg version="1.0" xmlns="http://www.w3.org/2000/svg"
 width="50.000000pt" height="100.000000pt" viewBox="0 -100 600.000000 600.000000"
 preserveAspectRatio="xMidYMid meet">
<metadata>
Created by potrace 1.15, written by Peter Selinger 2001-2017
</metadata>
<g transform="translate(0.000000,600.000000) scale(0.100000,-0.100000)"
fill="#EC312E" stroke="none">
<path d="M2711 5620 c-228 -22 -482 -80 -687 -155 -149 -55 -405 -184 -534
-270 -166 -111 -288 -211 -430 -354 -620 -623 -885 -1490 -724 -2367 175 -960
895 -1763 1834 -2047 125 -38 310 -78 460 -98 157 -22 525 -17 699 10 471 72
883 248 1261 539 116 90 380 356 466 472 262 351 428 722 503 1129 31 164 42
298 42 491 0 193 -11 327 -42 491 -75 407 -241 778 -503 1129 -86 116 -350
382 -466 472 -382 294 -788 467 -1265 539 -151 23 -471 32 -614 19z m400 -817
c66 -31 124 -82 164 -143 32 -47 1230 -2733 1245 -2789 35 -130 -61 -270 -207
-302 -39 -9 -66 -10 -93 -2 -21 5 -407 214 -858 464 l-819 454 573 3 c316 1
574 6 574 10 0 15 -729 1637 -737 1639 -4 1 -253 -551 -553 -1228 -374 -844
-555 -1243 -577 -1269 -46 -53 -122 -84 -193 -77 -109 10 -205 72 -236 153
-37 97 -60 39 601 1529 334 754 614 1383 622 1399 25 48 119 135 170 158 72
32 101 37 184 34 60 -2 89 -9 140 -33z"/>
</g>
</svg>
